<svg width="183" height="87" viewBox="0 0 183 87" fill="none" xmlns="http://www.w3.org/2000/svg">
<g filter="url(#filter0_d_1359_25256)">
<rect x="20.5703" y="20.5" width="142" height="46" rx="10" fill="white" shape-rendering="crispEdges"/>
<g clip-path="url(#clip0_1359_25256)">
<path d="M33.2446 30.4999C31.7747 30.4999 30.5781 31.7057 30.5781 33.1859V53.8137C30.5781 55.2939 31.7747 56.4997 33.2446 56.4997H48.9082C50.3782 56.4997 51.5747 55.2939 51.5747 53.8137V36.8519C51.5747 36.8519 51.6167 36.3552 51.4026 35.8719C51.2019 35.4189 50.8748 35.1035 50.8748 35.1035C50.8739 35.1024 50.8731 35.1013 50.8723 35.1002L46.9861 31.2616C46.984 31.2595 46.9818 31.2573 46.9797 31.2551C46.9797 31.2551 46.6479 30.937 46.156 30.7245C45.5769 30.4742 44.98 30.5006 44.98 30.5006L44.9889 30.4998L33.2446 30.4999Z" fill="#FF2116"/>
<path d="M33.2435 31.3822H44.9877C44.9907 31.3822 44.9936 31.3822 44.9966 31.3822C44.9966 31.3822 45.4662 31.3868 45.8097 31.5352C46.1403 31.6781 46.3748 31.8943 46.3763 31.8958C46.3763 31.8958 46.378 31.8975 46.378 31.8975L50.2544 35.7271C50.2544 35.7271 50.488 35.9754 50.6012 36.2309C50.6926 36.4371 50.6982 36.8145 50.6982 36.8145C50.6978 36.8207 50.6975 36.827 50.6974 36.8332V53.8137C50.6974 54.8205 49.9068 55.6174 48.907 55.6174H33.2435C32.2437 55.6174 31.4531 54.8206 31.4531 53.8137V33.1859C31.4531 32.1791 32.2437 31.3822 33.2435 31.3822V31.3822Z" fill="#F5F5F5"/>
<path d="M35.8207 45.98C35.2178 45.3729 35.8701 44.5387 37.6401 43.6529L38.7538 43.0955L39.1877 42.1395C39.4264 41.6137 39.7825 40.7558 39.9792 40.233L40.3368 39.2825L40.0904 38.5791C39.7874 37.7142 39.6793 36.4144 39.8716 35.947C40.132 35.314 40.9849 35.3789 41.3226 36.0575C41.5863 36.5875 41.5594 37.5473 41.2467 38.7578L40.9905 39.7501L41.2162 40.1361C41.3404 40.3483 41.703 40.8523 42.0222 41.256L42.6219 42.0073L43.3682 41.9092C45.7391 41.5977 46.5511 42.1272 46.5511 42.8864C46.5511 43.8445 44.6895 43.9236 43.1262 42.8179C42.7744 42.5691 42.5329 42.322 42.5329 42.322C42.5329 42.322 41.5535 42.5228 41.0713 42.6536C40.5736 42.7887 40.3253 42.8733 39.5962 43.1212C39.5962 43.1212 39.3404 43.4953 39.1737 43.7672C38.5535 44.779 37.8294 45.6175 37.3123 45.9227C36.7333 46.2644 36.1263 46.2877 35.8207 45.98ZM36.7667 45.6396C37.1056 45.4287 37.7915 44.6118 38.2662 43.8537L38.4584 43.5467L37.5832 43.9899C36.2314 44.6743 35.6129 45.3194 35.9345 45.7096C36.1152 45.9288 36.3313 45.9106 36.7667 45.6396ZM45.5476 43.1576C45.879 42.9238 45.8309 42.4527 45.4562 42.2628C45.1646 42.115 44.9295 42.0846 44.172 42.0959C43.7065 42.1278 42.9579 42.2223 42.831 42.251C42.831 42.251 43.2422 42.5372 43.4248 42.6424C43.6679 42.7822 44.2585 43.0417 44.6897 43.1746C45.1151 43.3058 45.3611 43.2919 45.5476 43.1576V43.1576ZM42.0169 41.6799C41.8163 41.4675 41.4752 41.0244 41.259 40.695C40.9761 40.3215 40.8342 40.0579 40.8342 40.0579C40.8342 40.0579 40.6275 40.7276 40.4579 41.1306L39.9287 42.4478L39.7752 42.7466C39.7752 42.7466 40.5909 42.4772 41.0059 42.3681C41.4455 42.2524 42.3376 42.0758 42.3376 42.0758L42.0169 41.6799ZM40.8791 37.085C40.9303 36.6527 40.952 36.2209 40.814 36.0032C40.4314 35.582 39.9696 35.9333 40.0478 36.9347C40.0741 37.2716 40.1572 37.8475 40.2683 38.2025L40.4704 38.8478L40.6125 38.3618C40.6908 38.0944 40.8107 37.5199 40.8791 37.085Z" fill="#FF2116"/>
<path d="M36.8438 48.7911H37.8225C38.1352 48.7911 38.389 48.8213 38.584 48.8815C38.779 48.9399 38.9431 49.0711 39.0763 49.2752C39.2095 49.4774 39.2761 49.7213 39.2761 50.0071C39.2761 50.2695 39.222 50.495 39.1139 50.6836C39.0058 50.8721 38.8601 51.0082 38.6767 51.0918C38.4952 51.1754 38.2153 51.2172 37.8369 51.2172H37.4982V52.7714H36.8438V48.7911ZM37.4982 49.3014V50.6894H37.8225C38.112 50.6894 38.3118 50.635 38.4219 50.5261C38.5338 50.4173 38.5898 50.2404 38.5898 49.9954C38.5898 49.8127 38.5531 49.6649 38.4798 49.5522C38.4064 49.4375 38.3253 49.3675 38.2365 49.3423C38.1497 49.315 38.0117 49.3014 37.8225 49.3014L37.4982 49.3014ZM39.777 48.7911H40.666C41.0965 48.7911 41.4401 48.8679 41.6968 49.0215C41.9555 49.1751 42.1505 49.4035 42.2817 49.7067C42.4149 50.01 42.4815 50.3463 42.4815 50.7156C42.4815 51.1044 42.4217 51.4514 42.302 51.7566C42.1842 52.0599 42.0028 52.3048 41.7576 52.4914C41.5144 52.6781 41.1669 52.7714 40.7152 52.7714H39.777V48.7911ZM40.4314 49.3189V52.2436H40.7036C41.0839 52.2436 41.36 52.1114 41.5318 51.847C41.7036 51.5807 41.7895 51.2259 41.7895 50.7827C41.7895 49.8069 41.4275 49.3189 40.7036 49.3189H40.4314ZM43.1099 48.7911H45.3048V49.3189H43.7643V50.5086H44.9978V51.0364H43.7643V52.7714H43.1099V48.7911Z" fill="#2C2C2C"/>
</g>
<path d="M67.9103 46.5H67.0603L66.3603 44.67H63.3703L62.6703 46.5H61.8303L64.4003 39.9H65.3503L67.9103 46.5ZM63.6603 43.92H66.0703L64.8603 40.67L63.6603 43.92ZM73.8762 39.9L71.3762 46.5H70.4662L67.9562 39.9H68.8162L70.4962 44.46L70.9162 45.77L71.3362 44.47L73.0162 39.9H73.8762ZM80.0048 46.5H79.1548L78.4548 44.67H75.4648L74.7648 46.5H73.9248L76.4948 39.9H77.4448L80.0048 46.5ZM75.7548 43.92H78.1648L76.9548 40.67L75.7548 43.92ZM82.2464 39.9V46.5H81.4464V39.9H82.2464ZM85.3054 45.75H89.0854V46.5H84.5054V39.9H85.3054V45.75ZM95.842 46.5H94.992L94.292 44.67H91.302L90.602 46.5H89.762L92.332 39.9H93.282L95.842 46.5ZM91.592 43.92H94.002L92.792 40.67L91.592 43.92ZM97.2835 46.5V39.9H99.6335C100.414 39.9 100.984 40.0633 101.344 40.39C101.704 40.7167 101.884 41.16 101.884 41.72C101.884 42.0533 101.787 42.3567 101.594 42.63C101.4 42.8967 101.127 43.0667 100.774 43.14V43.15C101.167 43.2233 101.477 43.4033 101.704 43.69C101.937 43.97 102.054 44.29 102.054 44.65C102.054 45.21 101.844 45.66 101.424 46C101.004 46.3333 100.404 46.5 99.6235 46.5H97.2835ZM98.0835 45.75H99.8135C100.287 45.75 100.637 45.6533 100.864 45.46C101.097 45.2667 101.214 44.9967 101.214 44.65C101.214 44.2967 101.097 44.0267 100.864 43.84C100.637 43.6467 100.287 43.55 99.8135 43.55H98.0835V45.75ZM98.0835 42.8H99.6435C100.577 42.8 101.044 42.44 101.044 41.72C101.044 41.0067 100.577 40.65 99.6435 40.65H98.0835V42.8ZM104.717 45.75H108.497V46.5H103.917V39.9H104.717V45.75ZM109.993 46.5V39.9H114.623V40.65H110.793V42.78H113.773V43.53H110.793V45.75H114.773V46.5H109.993ZM120.778 39.9V46.5H119.978V39.9H120.778ZM128.217 39.9V46.5H127.227L124.467 42.08L123.767 40.84H123.757L123.797 41.84V46.5H123.037V39.9H124.027L126.777 44.3L127.487 45.57H127.497L127.457 44.56V39.9H128.217ZM136.319 39.9C136.766 39.9 137.153 39.9833 137.479 40.15C137.813 40.31 138.073 40.54 138.259 40.84C138.446 41.14 138.539 41.4967 138.539 41.91C138.539 42.3233 138.446 42.68 138.259 42.98C138.073 43.28 137.813 43.5133 137.479 43.68C137.153 43.84 136.766 43.92 136.319 43.92H134.789V46.5H133.989V39.9H136.319ZM136.199 43.17C136.719 43.17 137.099 43.0633 137.339 42.85C137.579 42.63 137.699 42.3167 137.699 41.91C137.699 41.4967 137.579 41.1833 137.339 40.97C137.099 40.7567 136.719 40.65 136.199 40.65H134.789V43.17H136.199ZM142.323 39.9C143.356 39.9 144.166 40.1867 144.753 40.76C145.346 41.3267 145.643 42.14 145.643 43.2C145.643 44.26 145.346 45.0767 144.753 45.65C144.166 46.2167 143.356 46.5 142.323 46.5H140.193V39.9H142.323ZM142.403 45.75C143.156 45.75 143.743 45.5267 144.163 45.08C144.59 44.6267 144.803 44 144.803 43.2C144.803 42.4 144.59 41.7767 144.163 41.33C143.743 40.8767 143.156 40.65 142.403 40.65H140.993V45.75H142.403ZM152.12 40.65H148.3V42.78H151.28V43.53H148.3V46.5H147.5V39.9H152.12V40.65Z" fill="black"/>
</g>
<defs>
<filter id="filter0_d_1359_25256" x="0.570312" y="0.5" width="182" height="86" filterUnits="userSpaceOnUse" color-interpolation-filters="sRGB">
<feFlood flood-opacity="0" result="BackgroundImageFix"/>
<feColorMatrix in="SourceAlpha" type="matrix" values="0 0 0 0 0 0 0 0 0 0 0 0 0 0 0 0 0 0 127 0" result="hardAlpha"/>
<feOffset/>
<feGaussianBlur stdDeviation="10"/>
<feComposite in2="hardAlpha" operator="out"/>
<feColorMatrix type="matrix" values="0 0 0 0 0 0 0 0 0 0 0 0 0 0 0 0 0 0 0.05 0"/>
<feBlend mode="normal" in2="BackgroundImageFix" result="effect1_dropShadow_1359_25256"/>
<feBlend mode="normal" in="SourceGraphic" in2="effect1_dropShadow_1359_25256" result="shape"/>
</filter>
<clipPath id="clip0_1359_25256">
<rect width="21" height="26" fill="white" transform="translate(30.5703 30.5)"/>
</clipPath>
</defs>
</svg>
