<svg width="80" height="80" viewBox="0 0 80 80" fill="none" xmlns="http://www.w3.org/2000/svg">
<rect width="80" height="80" fill="white"/>
<g filter="url(#filter0_d_1386_25723)">
<path d="M35.5323 6.052C37.71 3.82805 41.29 3.82805 43.4677 6.052C45.0318 7.64933 47.4013 8.15298 49.4799 7.32992C52.3738 6.18399 55.6444 7.64012 56.7292 10.5575C57.5084 12.653 59.4682 14.0768 61.7018 14.1703C64.8117 14.3006 67.2072 16.9611 67.0116 20.0675C66.8712 22.2987 68.0824 24.3965 70.0849 25.3905C72.8729 26.7743 73.9792 30.1792 72.537 32.9375C71.5012 34.9187 71.7544 37.3278 73.1795 39.0503C75.1636 41.4485 74.7894 45.009 72.35 46.9422C70.598 48.3308 69.8494 50.6346 70.4507 52.7879C71.2878 55.7858 69.4978 58.8862 66.483 59.6601C64.3176 60.216 62.6967 62.0162 62.3702 64.2278C61.9156 67.3071 59.0193 69.4114 55.9503 68.8922C53.746 68.5192 51.5331 69.5045 50.3352 71.3922C48.6675 74.0203 45.1657 74.7646 42.5732 73.042C40.7112 71.8048 38.2888 71.8048 36.4268 73.042C33.8343 74.7646 30.3325 74.0203 28.6648 71.3922C27.4669 69.5045 25.254 68.5192 23.0497 68.8922C19.9807 69.4114 17.0844 67.3071 16.6298 64.2278C16.3033 62.0162 14.6824 60.216 12.517 59.6601C9.5022 58.8862 7.71218 55.7858 8.54933 52.7879C9.15061 50.6346 8.40205 48.3308 6.64997 46.9422C4.21058 45.009 3.83636 41.4485 5.82049 39.0503C7.24558 37.3278 7.49879 34.9187 6.46297 32.9375C5.02081 30.1792 6.12711 26.7743 8.91515 25.3905C10.9176 24.3965 12.1288 22.2987 11.9884 20.0675C11.7928 16.9611 14.1883 14.3006 17.2982 14.1703C19.5318 14.0768 21.4916 12.653 22.2708 10.5575C23.3556 7.64012 26.6262 6.18399 29.5202 7.32992C31.5987 8.15298 33.9682 7.64933 35.5323 6.052Z" fill="white"/>
<path d="M44.1822 5.35236C41.6124 2.72793 37.3876 2.72793 34.8178 5.35236C33.5353 6.66205 31.5926 7.075 29.8883 6.40015C26.4732 5.04787 22.6137 6.76622 21.3335 10.209C20.6946 11.9271 19.0878 13.0945 17.2564 13.1712C13.5865 13.3249 10.7596 16.4645 10.9904 20.1303C11.1055 21.9597 10.1124 23.6798 8.47055 24.4948C5.18044 26.1278 3.87493 30.1458 5.57678 33.4008C6.42608 35.0252 6.21847 37.0005 5.05 38.4128C2.70857 41.2429 3.15017 45.4445 6.02885 47.726C7.46542 48.8645 8.07918 50.7534 7.58617 52.5189C6.59827 56.0567 8.71064 59.7154 12.2684 60.6287C14.0438 61.0845 15.3728 62.5605 15.6405 64.3739C16.177 68.0076 19.5949 70.4909 23.2165 69.8782C25.0238 69.5724 26.8383 70.3802 27.8204 71.9279C29.7884 75.0293 33.9209 75.9077 36.9802 73.8749C38.5069 72.8605 40.4931 72.8605 42.0198 73.8749C45.0791 75.9077 49.2116 75.0293 51.1796 71.9279C52.1617 70.3802 53.9762 69.5724 55.7835 69.8782C59.4051 70.4909 62.823 68.0076 63.3595 64.3739C63.6272 62.5605 64.9562 61.0845 66.7316 60.6287C70.2894 59.7154 72.4017 56.0567 71.4138 52.5189C70.9208 50.7534 71.5346 48.8645 72.9712 47.726C75.8498 45.4445 76.2914 41.2429 73.95 38.4128C72.7815 37.0005 72.5739 35.0252 73.4232 33.4008C75.1251 30.1458 73.8196 26.1278 70.5295 24.4948C68.8876 23.6798 67.8945 21.9597 68.0097 20.1303C68.2404 16.4645 65.4135 13.3249 61.7436 13.1712C59.9122 13.0945 58.3054 11.9271 57.6665 10.209C56.3863 6.76622 52.5268 5.04787 49.1117 6.40015C47.4074 7.075 45.4646 6.66205 44.1822 5.35236Z" stroke="black" stroke-width="2"/>
</g>
<path fill-rule="evenodd" clip-rule="evenodd" d="M47.4069 33.0536C47.2972 33.0835 47.1348 33.1446 47.0459 33.1895C46.9339 33.2459 45.3542 34.8199 41.897 38.3199L36.9097 43.3689L34.734 41.1689C33.2032 39.621 32.5077 38.9433 32.3874 38.8823C31.3747 38.3691 30.2113 38.9671 30.0199 40.0993C29.9659 40.4188 30.0227 40.7736 30.1792 41.0942C30.2794 41.2994 30.6218 41.6606 32.8892 43.9524L35.4844 46.5757L35.8074 46.7314C36.5502 47.0894 37.2671 47.0895 38.0114 46.7318L38.3344 46.5766L43.7414 41.104C49.6432 35.1305 49.3163 35.4861 49.4186 34.9286C49.6287 33.7841 48.5193 32.7501 47.4069 33.0536Z" fill="black"/>
<defs>
<filter id="filter0_d_1386_25723" x="2.54688" y="2.38403" width="77.4062" height="77.0869" filterUnits="userSpaceOnUse" color-interpolation-filters="sRGB">
<feFlood flood-opacity="0" result="BackgroundImageFix"/>
<feColorMatrix in="SourceAlpha" type="matrix" values="0 0 0 0 0 0 0 0 0 0 0 0 0 0 0 0 0 0 127 0" result="hardAlpha"/>
<feOffset dx="3.5" dy="3.5"/>
<feComposite in2="hardAlpha" operator="out"/>
<feColorMatrix type="matrix" values="0 0 0 0 0.317647 0 0 0 0 0.988235 0 0 0 0 0.560784 0 0 0 1 0"/>
<feBlend mode="normal" in2="BackgroundImageFix" result="effect1_dropShadow_1386_25723"/>
<feBlend mode="normal" in="SourceGraphic" in2="effect1_dropShadow_1386_25723" result="shape"/>
</filter>
</defs>
</svg>
