<svg width="49" height="15" viewBox="0 0 49 15" fill="none" xmlns="http://www.w3.org/2000/svg">
<path d="M36.8486 1.96191C36.2939 1.96191 35.8269 2.28522 35.6186 2.78167L31.2812 13.1375H34.3153L34.9188 11.4692H38.6267L38.9773 13.1375H41.6507L39.3172 1.96191H36.8486ZM38.1483 9.17737H35.75L37.2725 4.98087L38.1483 9.17737Z" fill="url(#paint0_linear_353_4793)"/>
<path d="M14.7733 13.1375L19.4576 1.96191H16.4214L13.4118 9.56821L12.1947 3.10067C12.0518 2.37862 11.4878 1.96191 10.8613 1.96191H5.94202L5.87305 2.28666C6.8832 2.50579 8.03057 2.85927 8.72532 3.23717C9.15064 3.46852 9.27206 3.6704 9.41216 4.2193L11.7177 13.1375H14.7733Z" fill="url(#paint1_linear_353_4793)"/>
<path d="M21.1977 13.1375L23.5887 1.96191H20.6984L18.3066 13.1375H21.1977Z" fill="url(#paint2_linear_353_4793)"/>
<path d="M31.4315 9.48948C31.443 6.54022 27.3521 6.37713 27.3801 5.05877C27.3894 4.6593 27.7709 4.23254 28.6072 4.12405C29.021 4.06945 30.1627 4.02706 31.4573 4.62338L31.9653 2.25463C31.2691 2.00102 30.3739 1.75818 29.2596 1.75818C26.4016 1.75818 24.3913 3.27771 24.3755 5.45176C24.3554 7.0611 25.8095 7.95917 26.9059 8.49298C28.0317 9.04117 28.4104 9.39249 28.406 9.88248C28.3974 10.6325 27.508 10.963 26.6753 10.976C25.2226 10.9982 24.3784 10.5837 23.7066 10.2704L23.1836 12.7189C23.8575 13.0293 25.1047 13.3002 26.398 13.3117C29.4342 13.3124 31.4207 11.8137 31.4315 9.48948Z" fill="url(#paint3_linear_353_4793)"/>
<defs>
<linearGradient id="paint0_linear_353_4793" x1="10.95" y1="17.9374" x2="41.1042" y2="6.83226" gradientUnits="userSpaceOnUse">
<stop stop-color="#222357"/>
<stop offset="1" stop-color="#254AA5"/>
</linearGradient>
<linearGradient id="paint1_linear_353_4793" x1="7.51438" y1="8.60465" x2="37.6686" y2="-2.50045" gradientUnits="userSpaceOnUse">
<stop stop-color="#222357"/>
<stop offset="1" stop-color="#254AA5"/>
</linearGradient>
<linearGradient id="paint2_linear_353_4793" x1="8.78036" y1="12.0422" x2="38.9345" y2="0.937118" gradientUnits="userSpaceOnUse">
<stop stop-color="#222357"/>
<stop offset="1" stop-color="#254AA5"/>
</linearGradient>
<linearGradient id="paint3_linear_353_4793" x1="9.603" y1="14.28" x2="39.7572" y2="3.17487" gradientUnits="userSpaceOnUse">
<stop stop-color="#222357"/>
<stop offset="1" stop-color="#254AA5"/>
</linearGradient>
</defs>
</svg>
