<svg width="24" height="22" viewBox="0 0 24 22" fill="none" xmlns="http://www.w3.org/2000/svg">
<path d="M2.09745 19.183L1.64608 18.9686C1.68295 18.891 1.73705 18.8213 1.77317 18.7764C1.81722 18.7217 1.87431 18.6561 1.94457 18.5787C2.08563 18.4234 2.29695 18.2014 2.60187 17.8883C3.21282 17.261 4.21538 16.2519 5.81999 14.6448L6.16372 14.9879L5.82 14.6448L9.45014 11.0089L5.8521 7.4123C5.59843 7.15873 5.35978 6.9203 5.13528 6.69601C3.39216 4.95448 2.50206 4.0652 2.05377 3.55635C1.80689 3.27611 1.6404 3.05438 1.56015 2.82827C1.48951 2.62922 1.49771 2.42769 1.5017 2.32957C1.5024 2.31251 1.50296 2.29858 1.50297 2.28834L2.09745 19.183ZM2.09745 19.183L1.64608 18.9686C1.53808 19.196 1.49909 19.4698 1.49807 19.707C1.49705 19.9446 1.53385 20.2184 1.63854 20.4471C1.80035 20.8007 2.13065 21.1396 2.47714 21.3189L2.47719 21.3189M2.09745 19.183L2.47719 21.3189M2.47719 21.3189C2.69913 21.4337 2.95758 21.4869 3.19745 21.4978C3.43909 21.5088 3.70068 21.4786 3.93589 21.3919L3.93599 21.3918M2.47719 21.3189L3.93599 21.3918M3.93599 21.3918C4.16802 21.3062 4.3388 21.1633 4.86229 20.6587M3.93599 21.3918L4.86229 20.6587M22.3449 18.971L22.3449 18.9711C22.4513 19.1984 22.4905 19.4715 22.4919 19.7087C22.4933 19.9456 22.4574 20.2195 22.3526 20.4477C22.1911 20.7996 21.8625 21.1366 21.5185 21.319L22.3449 18.971ZM22.3449 18.971C22.3085 18.8932 22.2554 18.824 22.2191 18.7786C22.1755 18.724 22.1192 18.659 22.0499 18.5825C21.9109 18.4289 21.702 18.2093 21.3989 17.898C20.7915 17.2742 19.7891 16.2653 18.1711 14.6448L17.8566 14.9588M22.3449 18.971L17.8566 14.9588M17.8566 14.9588L18.1711 14.6448L14.541 11.0089M17.8566 14.9588L14.541 11.0089M20.6965 0.507753L20.6966 0.507753C20.8799 0.508034 21.1421 0.538206 21.3119 0.600558L20.6965 0.507753ZM20.6965 0.507753C20.6902 0.507744 20.6803 0.507216 20.6673 0.506522C20.585 0.502144 20.3791 0.49118 20.1818 0.562756C19.9637 0.641862 19.7483 0.806951 19.476 1.04849C18.9818 1.4868 18.1095 2.35816 16.3991 4.06672C16.1629 4.30268 15.9107 4.5546 15.6413 4.82356L15.9832 5.166M20.6965 0.507753L15.9832 5.166M15.9832 5.166L15.6413 4.82356L11.9956 8.46346L8.34982 4.82356L8.0119 5.16203M15.9832 5.166L8.0119 5.16203M8.0119 5.16203L8.34982 4.82356C6.61463 3.09117 5.60558 2.08754 5.00911 1.50851M8.0119 5.16203L5.00911 1.50851M4.86229 20.6587C5.41332 20.1276 6.41936 19.1241 8.34996 17.196M4.86229 20.6587L8.34996 17.196M8.34996 17.196L11.9958 13.555M8.34996 17.196L11.9958 13.555M11.9958 13.555L15.6218 17.1757C17.2195 18.771 18.2262 19.7712 18.8534 20.3822C19.1664 20.6871 19.3888 20.8989 19.5446 21.0405C19.6222 21.111 19.6879 21.1683 19.7426 21.2125C19.7873 21.2485 19.8571 21.3029 19.9345 21.3399C20.0435 21.392 20.1539 21.4347 20.2974 21.4582C20.4244 21.479 20.562 21.4818 20.7179 21.4816L11.9958 13.555ZM21.149 21.4551C21.0183 21.4791 20.8755 21.4813 20.7179 21.4816L21.149 21.4551ZM21.149 21.4551C21.3012 21.4271 21.4135 21.3747 21.5184 21.319L21.149 21.4551ZM14.541 11.0089L18.139 7.4123C18.308 7.24336 18.4703 7.08121 18.626 6.92555C20.4609 5.09177 21.3945 4.15863 21.8702 3.63194C22.123 3.35208 22.2872 3.14419 22.38 2.94849C22.4723 2.7539 22.4843 2.5809 22.4913 2.48047C22.4924 2.46593 22.4933 2.45291 22.4943 2.44157C22.5673 1.63699 22.0687 0.87856 21.3119 0.600572L14.541 11.0089ZM5.00911 1.50851C4.71186 1.21996 4.51072 1.03063 4.37072 0.907635M5.00911 1.50851L4.37072 0.907635M4.37072 0.907635C4.24943 0.801087 4.12282 0.69608 3.99001 0.642187L4.37072 0.907635ZM2.9481 0.528869C2.38432 0.639645 1.89785 1.02083 1.65392 1.54124L2.9481 0.528869ZM1.65391 1.54127C1.60238 1.6512 1.5582 1.76216 1.53202 1.89725C1.50727 2.0249 1.50297 2.15249 1.50297 2.28827L1.65391 1.54127ZM3.98995 0.642161C3.67106 0.512762 3.28149 0.463356 2.94811 0.528866L3.98995 0.642161Z" fill="#FC5151" stroke="#FC5151"/>
</svg>
