<svg width="28" height="20" viewBox="0 0 28 20" fill="none" xmlns="http://www.w3.org/2000/svg">
<path fill-rule="evenodd" clip-rule="evenodd" d="M25.1167 0.0692663C24.5443 0.250765 24.5267 0.267512 17.2597 7.52796L10.1096 14.6718L6.87428 11.4411C3.86905 8.44013 3.6129 8.19817 3.27334 8.03924C2.41021 7.63535 1.49233 7.76296 0.807551 8.38206C0.26425 8.87322 -0.0043003 9.65473 0.126414 10.3642C0.260227 11.0905 0.176165 10.9959 4.68749 15.4965C8.63381 19.4335 8.87811 19.6665 9.21218 19.8122C9.63521 19.9966 10.2207 20.0529 10.6124 19.9467C11.2746 19.767 10.9901 20.0365 19.4686 11.5561C28.2666 2.75586 27.7419 3.31907 27.877 2.53016C28.0616 1.45209 27.3852 0.402196 26.2922 0.0704087C25.9844 -0.0230051 25.4095 -0.0235494 25.1167 0.0692663Z" fill="black"/>
</svg>
