<svg width="49" height="15" viewBox="0 0 49 15" fill="none" xmlns="http://www.w3.org/2000/svg">
<path d="M27.0709 2.23718H21.1738V12.8332H27.0709V2.23718Z" fill="#FF5F00"/>
<path d="M21.5476 7.53482C21.5476 5.38192 22.5585 3.47238 24.1124 2.2368C22.9704 1.3382 21.5289 0.795288 19.9563 0.795288C16.2309 0.795288 13.2168 3.80936 13.2168 7.53482C13.2168 11.2603 16.2309 14.2744 19.9563 14.2744C21.5289 14.2744 22.9704 13.7315 24.1124 12.8329C22.5585 11.616 21.5476 9.68773 21.5476 7.53482Z" fill="#EB001B"/>
<path d="M35.0264 7.53482C35.0264 11.2603 32.0124 14.2744 28.2869 14.2744C26.7143 14.2744 25.2728 13.7315 24.1309 12.8329C25.7034 11.5973 26.6956 9.68773 26.6956 7.53482C26.6956 5.38192 25.6847 3.47238 24.1309 2.2368C25.2728 1.3382 26.7143 0.795288 28.2869 0.795288C32.0124 0.795288 35.0264 3.82808 35.0264 7.53482Z" fill="#F79E1B"/>
</svg>
