<svg width="16" height="16" viewBox="0 0 16 16" fill="none" xmlns="http://www.w3.org/2000/svg">
<path fill-rule="evenodd" clip-rule="evenodd" d="M7.51643 1.61264C6.08314 1.74685 4.85462 2.25872 3.81436 3.15516C2.6384 4.16854 1.90323 5.51007 1.65114 7.1027C1.58481 7.5217 1.5851 8.48296 1.65164 8.90803C1.84911 10.169 2.3451 11.2556 3.15177 12.1944C4.17118 13.3809 5.597 14.1465 7.19601 14.3662C7.52498 14.4114 8.47112 14.4112 8.79814 14.3659C10.6606 14.1078 12.2465 13.1381 13.2815 11.6244C14.5233 9.80816 14.7471 7.50682 13.8799 5.4703C13.3888 4.31698 12.5317 3.30949 11.4417 2.60414C10.605 2.06274 9.59066 1.71579 8.57117 1.62231C8.29907 1.59737 7.7348 1.59219 7.51643 1.61264ZM8.33072 4.21501C8.63384 4.32844 8.86727 4.58834 8.94586 4.89989C8.98636 5.06044 8.98268 5.12841 8.83894 6.86296C8.75704 7.85118 8.68287 8.69578 8.67408 8.73985C8.61491 9.03676 8.30335 9.28737 7.99331 9.28737C7.68311 9.28737 7.37016 9.02699 7.31812 8.72556C7.30933 8.67465 7.23571 7.8344 7.15454 6.85832C6.99732 4.96816 6.99734 4.96875 7.11267 4.70794C7.30525 4.27251 7.87176 4.04325 8.33072 4.21501ZM8.35755 10.2243C8.52634 10.3044 8.68716 10.4644 8.7716 10.6361C8.82602 10.7468 8.83712 10.8085 8.83646 10.9967C8.83576 11.1903 8.825 11.2443 8.76348 11.3631C8.7238 11.4397 8.64887 11.5448 8.59699 11.5968C8.54508 11.6487 8.43996 11.7236 8.36335 11.7633C8.24458 11.8248 8.19058 11.8356 7.99707 11.8363C7.80896 11.837 7.74725 11.8258 7.63659 11.7714C6.94247 11.43 7.00028 10.4503 7.73018 10.185C7.8987 10.1237 8.18324 10.1416 8.35755 10.2243Z" fill="#FC5758"/>
</svg>
