<svg width="102" height="18" viewBox="0 0 102 18" fill="none" xmlns="http://www.w3.org/2000/svg">
<path d="M21.4043 13.0439C21.9436 11.9183 20.9073 10.8345 19.6592 10.8345C18.5764 10.8345 17.7266 11.6804 17.1485 12.596C17.1409 12.608 17.1333 12.62 17.1255 12.632C16.7755 13.1737 16.3255 13.617 15.7755 13.9863C15.2005 14.3557 14.5504 14.6265 13.8004 14.8235C13.0504 15.0205 12.2504 15.119 11.3753 15.119C10.3003 15.119 9.35027 14.9959 8.55025 14.7004C7.75022 14.4049 7.0752 14.0109 6.52519 13.4938C5.97517 12.9767 5.55016 12.3365 5.27515 11.5978C5.00014 10.8591 4.87513 10.0465 4.87513 9.16006C4.87513 8.22435 5.02514 7.38714 5.32515 6.59918C5.62516 5.83584 6.07517 5.171 6.65019 4.62928C7.22521 4.08755 7.92523 3.69357 8.77526 3.39809C9.60028 3.1026 10.5503 2.95486 11.6003 2.95486C12.3754 2.95486 13.1504 3.05335 13.9004 3.25034C14.6504 3.44733 15.3005 3.7182 15.9005 4.11218C16.5005 4.50616 16.9755 4.99863 17.3505 5.5896C17.3827 5.64622 17.4136 5.70387 17.4432 5.76257C17.9707 6.808 18.8426 7.8166 20.0135 7.83009C21.2036 7.8438 22.2177 6.86128 21.8759 5.72126C21.7485 5.29636 21.5812 4.89182 21.3756 4.50616C20.8256 3.5212 20.1006 2.70862 19.1506 2.04378C18.2005 1.37893 17.1005 0.861834 15.8505 0.517101C14.6004 0.172367 13.2504 0 11.8004 0C10.1503 0 8.62525 0.221614 7.25021 0.664843C5.85017 1.10807 4.67513 1.72367 3.6751 2.51163C2.67507 3.32421 1.87504 4.30917 1.32503 5.44186C0.775008 6.59918 0.5 7.87962 0.5 9.3078C0.5 10.6129 0.725007 11.7948 1.20002 12.8536C1.67504 13.9371 2.35006 14.8482 3.25009 15.6115C4.12511 16.3748 5.20015 16.9658 6.50019 17.3844C7.80023 17.803 9.25027 18 10.8753 18C12.3254 18 13.7254 17.8523 15.0504 17.5075C16.3505 17.1628 17.5255 16.6949 18.5506 16.0547C19.5506 15.4391 20.3756 14.6758 20.9756 13.7893C21.1389 13.5481 21.2818 13.2997 21.4043 13.0439Z" fill="black"/>
<path d="M36.1357 0C34.6106 0 33.1856 0.246238 31.8855 0.71409C30.5605 1.18194 29.4105 1.82216 28.4354 2.63475C27.4354 3.44733 26.6604 4.40766 26.1104 5.49111C25.5353 6.57456 25.2603 7.7565 25.2603 9.01231C25.2603 10.2928 25.5353 11.4993 26.0854 12.5828C26.6354 13.6662 27.4104 14.6265 28.3854 15.4145C29.3605 16.2271 30.5105 16.8673 31.8355 17.3105C33.1606 17.7784 34.5856 18 36.1357 18C37.6607 18 39.0858 17.7784 40.4108 17.3105C41.7358 16.8673 42.8859 16.2271 43.8609 15.4145C44.8359 14.6265 45.611 13.6662 46.161 12.5828C46.711 11.4993 46.986 10.2928 46.986 9.01231C46.986 7.73187 46.686 6.54993 46.136 5.44186C45.586 4.35841 44.8109 3.39809 43.8359 2.5855C42.8609 1.79754 41.7108 1.15732 40.4108 0.689466C39.0858 0.246238 37.6607 0 36.1357 0ZM36.1357 14.8728C35.2856 14.8728 34.4606 14.7497 33.7106 14.5034C32.9606 14.2572 32.2856 13.9124 31.7355 13.42C31.1605 12.9275 30.7105 12.3365 30.3855 11.6224C30.0355 10.9083 29.8855 10.0711 29.8855 9.11081C29.8855 8.1751 30.0355 7.33789 30.3855 6.59918C30.7105 5.86047 31.1605 5.24487 31.7355 4.75239C32.3106 4.25992 32.9856 3.86594 33.7606 3.59508C34.5356 3.34884 35.3606 3.22572 36.2607 3.22572C37.1857 3.25034 38.0357 3.39809 38.7858 3.64432C39.5358 3.91518 40.1858 4.28454 40.7358 4.77702C41.2608 5.26949 41.6858 5.88509 41.9859 6.6238C42.2859 7.36252 42.4359 8.1751 42.4359 9.11081C42.4359 10.0465 42.2609 10.8837 41.9358 11.5978C41.5858 12.3119 41.1358 12.9029 40.5608 13.3954C39.9858 13.8878 39.3108 14.2572 38.5607 14.5034C37.7857 14.7497 36.9857 14.8728 36.1357 14.8728Z" fill="black"/>
<path d="M60.3534 3.81669C60.0527 1.81738 58.3341 0.369357 56.3123 0.369357H56.2053C54.1087 0.369357 52.3157 1.87718 51.9562 3.94279L50.0363 14.9732C49.7971 16.3479 50.8551 17.606 52.2504 17.606C53.3264 17.606 54.2514 16.8434 54.4566 15.7872L55.5722 10.0449C55.6261 9.76755 55.6577 9.48565 55.6899 9.20494C55.7004 9.11309 55.7132 9.00784 55.7283 8.88919C55.7533 8.51984 55.7783 8.07661 55.8283 7.55951C55.8783 7.06703 55.9283 6.52531 55.9783 5.93434C56.0283 5.36799 56.0533 4.82627 56.1033 4.30917C56.1533 3.81669 56.1783 3.37346 56.2283 2.97948C56.238 2.83626 56.2477 2.71155 56.2559 2.60536C56.2715 2.40414 56.4419 2.24077 56.6437 2.24077C56.8331 2.24077 56.9911 2.38541 57.0075 2.57407C57.0477 3.03877 57.088 3.52256 57.1283 4.0383C57.1783 4.67852 57.2283 5.31874 57.2783 5.95896C57.3283 6.59918 57.3783 7.2394 57.4533 7.87962C57.5033 8.51984 57.6033 9.08618 57.7283 9.62791L59.1049 15.333C59.4267 16.6665 60.6199 17.606 61.9916 17.606C63.3628 17.606 64.5556 16.6673 64.878 15.3346L66.2286 9.75103C66.3536 9.18468 66.4536 8.56909 66.5286 7.92887C66.5786 7.28865 66.6536 6.6238 66.7036 5.95896C66.7536 5.29412 66.7786 4.62928 66.8286 3.96443C66.8692 3.44504 66.9097 2.94186 66.9637 2.45488C66.985 2.26196 67.1491 2.11765 67.3432 2.11765C67.5561 2.11765 67.7351 2.29014 67.7583 2.50174C67.7699 2.6086 67.7851 2.7346 67.8036 2.88098C67.8536 3.27497 67.9036 3.74282 67.9537 4.25992C68.0037 4.80164 68.0787 5.36799 68.1537 5.95896C68.2037 6.54993 68.2787 7.11628 68.3287 7.658C68.3787 8.19973 68.4537 8.64295 68.5037 9.03694C68.5537 9.43092 68.5787 9.67715 68.6037 9.77565L69.8804 15.8346C70.098 16.867 71.0089 17.606 72.0641 17.606C73.4699 17.606 74.5255 16.3218 74.2535 14.9426L72.0748 3.89793C71.6703 1.84747 69.8722 0.369357 67.7822 0.369357H66.402C65.1105 0.369357 63.9999 1.28438 63.8035 2.56088C63.6785 3.39809 63.5535 4.25992 63.4535 5.171C63.3285 6.1067 63.2035 7.04241 63.1035 8.00274C63.0035 8.96307 62.9035 9.89877 62.8285 10.8099C62.7285 11.7456 62.6535 12.6074 62.6035 13.4446C62.5659 14.0744 62.5283 14.6346 62.5013 15.146C62.4868 15.4196 62.2618 15.6361 61.9878 15.6361C61.7163 15.6361 61.4925 15.4236 61.4753 15.1527C61.421 14.2947 61.3372 13.2985 61.2534 12.1642C61.1534 10.8098 61.0034 9.40629 60.8534 7.97811C60.7034 6.54993 60.5284 5.171 60.3534 3.81669Z" fill="black"/>
<path d="M82.5472 7.39623C82.8163 7.3951 83.0409 7.60624 83.0478 7.8752C83.0547 8.14756 82.8357 8.37042 82.5634 8.3802C82.2208 8.39251 81.9171 8.42 81.6603 8.47059C81.2853 8.54446 80.9853 8.64296 80.7603 8.76608C80.5353 8.88919 80.3603 9.03694 80.2603 9.2093C80.1603 9.40629 80.0853 9.57866 80.0853 9.77565V15.356C80.0853 16.5986 81.0927 17.606 82.3353 17.606C83.578 17.606 84.5854 16.5986 84.5854 15.356V13.9001C84.5854 11.8534 86.2446 10.1943 88.2913 10.1943H90.931C91.6653 10.1943 92.2606 9.59894 92.2606 8.86457C92.2606 8.13021 91.6653 7.53488 90.931 7.53488H84.8104C84.0604 7.48564 83.4104 7.26402 82.9104 6.84542C82.3853 6.45144 82.1103 5.86047 82.1103 5.12175C82.1103 4.45691 82.3603 4.01368 82.8604 3.76744C83.3604 3.5212 84.0354 3.39809 84.8354 3.39809H91.784C92.6272 3.39809 93.3107 2.71457 93.3107 1.87141C93.3107 1.02825 92.6272 0.344733 91.784 0.344733H80.6603C79.6103 0.344733 78.7352 0.615595 78.0852 1.15732C77.4352 1.69904 77.0852 2.53625 77.0852 3.66895C77.0852 4.48153 77.2352 5.14638 77.5852 5.63885C77.9352 6.13133 78.3852 6.52531 78.9602 6.79617C79.5103 7.06703 80.1603 7.2394 80.8603 7.31327C81.4073 7.371 81.9697 7.39865 82.5472 7.39623Z" fill="black"/>
<path d="M99.2374 17.606C100.487 17.606 101.5 16.593 101.5 15.3434V2.63193C101.5 1.38235 100.487 0.369357 99.2374 0.369357C97.9878 0.369357 96.9749 1.38234 96.9749 2.63193V15.3434C96.9749 16.593 97.9878 17.606 99.2374 17.606Z" fill="black"/>
</svg>
