<svg width="159" height="92" viewBox="0 0 159 92" fill="none" xmlns="http://www.w3.org/2000/svg">
<g filter="url(#filter0_d_490_13317)">
<path fill-rule="evenodd" clip-rule="evenodd" d="M126 86C142.569 86 156 72.5685 156 56C156 39.4315 142.569 26 126 26H65.8135C60.8266 26 58.3332 26 55.3583 24.9884C53.4198 24.3292 50.337 22.5284 48.8106 21.1635C46.4683 19.0691 45.631 17.5841 43.9564 14.6141C41.755 10.71 39.6185 6.19912 37.6001 0.999939C39.3653 5.54694 40.6934 9.72713 41.6504 13.5643C43.3096 20.2168 37.8563 26 31 26C14.4315 26 1 39.4315 1 56C1 72.5685 14.4315 86 31 86H126Z" fill="white"/>
<path d="M38.5323 0.638039C38.3324 0.123184 37.753 -0.132149 37.2382 0.0677261C36.7233 0.267593 36.468 0.846992 36.6678 1.36184L38.5323 0.638039ZM41.6504 13.5643L42.6207 13.3223L41.6504 13.5643ZM55.3583 24.9884L55.6803 24.0416L55.3583 24.9884ZM48.8106 21.1635L48.1441 21.909L48.8106 21.1635ZM155 56C155 72.0163 142.016 85 126 85V87C143.121 87 157 73.1208 157 56H155ZM126 27C142.016 27 155 39.9837 155 56H157C157 38.8792 143.121 25 126 25V27ZM65.8135 27H126V25H65.8135V27ZM44.8274 14.123C42.6518 10.2646 40.5352 5.79743 38.5323 0.638039L36.6678 1.36184C38.7017 6.60081 40.8581 11.1554 43.0853 15.1053L44.8274 14.123ZM36.6678 1.36184C38.4196 5.87411 39.7344 10.0142 40.6801 13.8063L42.6207 13.3223C41.6524 9.44007 40.311 5.21978 38.5323 0.638039L36.6678 1.36184ZM2 56C2 39.9837 14.9837 27 31 27V25C13.8792 25 0 38.8792 0 56H2ZM31 85C14.9837 85 2 72.0163 2 56H0C0 73.1208 13.8792 87 31 87V85ZM126 85H31V87H126V85ZM40.6801 13.8063C42.1509 19.7034 37.3404 25 31 25V27C38.3723 27 44.4683 20.7302 42.6207 13.3223L40.6801 13.8063ZM65.8135 25C60.79 25 58.4702 24.9904 55.6803 24.0416L55.0364 25.9352C58.1962 27.0096 60.8633 27 65.8135 27V25ZM43.0853 15.1053C44.7658 18.0857 45.6701 19.6968 48.1441 21.909L49.4772 20.4181C47.2666 18.4414 46.4962 17.0825 44.8274 14.123L43.0853 15.1053ZM55.6803 24.0416C53.869 23.4257 50.9034 21.6933 49.4772 20.4181L48.1441 21.909C49.7706 23.3634 52.9706 25.2327 55.0364 25.9352L55.6803 24.0416Z" fill="black"/>
</g>
<path d="M62.326 52.112C61.1687 52.112 60.2587 51.7947 59.596 51.16C58.9707 50.572 58.6207 49.8953 58.546 49.13L60.1 48.71C60.212 49.3167 60.464 49.7927 60.856 50.138C61.2573 50.4927 61.7567 50.67 62.354 50.67C62.858 50.67 63.2967 50.5347 63.67 50.264C64.0247 49.9933 64.202 49.6527 64.202 49.242C64.202 48.85 64.0667 48.528 63.796 48.276C63.5253 48.024 63.1567 47.8467 62.69 47.744L61.43 47.492C60.618 47.324 59.988 46.988 59.54 46.484C59.0827 45.9893 58.854 45.4013 58.854 44.72C58.8353 43.8987 59.1667 43.1753 59.848 42.55C60.5293 41.9247 61.318 41.6213 62.214 41.64C63.502 41.6493 64.4447 42.0367 65.042 42.802C65.378 43.194 65.5973 43.6467 65.7 44.16L64.202 44.622C64.0993 44.2207 63.8753 43.866 63.53 43.558C63.1847 43.25 62.76 43.096 62.256 43.096C61.752 43.096 61.3367 43.2407 61.01 43.53C60.6647 43.8193 60.492 44.1647 60.492 44.566C60.492 44.874 60.6087 45.1587 60.842 45.42C61.0847 45.672 61.3973 45.84 61.78 45.924L63.068 46.176C63.964 46.3533 64.65 46.6987 65.126 47.212C65.6113 47.7253 65.854 48.3647 65.854 49.13C65.854 49.9047 65.5507 50.586 64.944 51.174C64.2907 51.7993 63.418 52.112 62.326 52.112ZM74.5962 49.97H74.6102L76.0802 45.042H77.6762L75.4362 52H73.8402L72.2302 47.114H72.2022L70.5782 52H68.9962L66.7702 45.042H68.3802L69.8502 49.956H69.8642L71.4462 45.042H73.0002L74.5962 49.97ZM79.7669 43.81C79.4963 43.81 79.2583 43.7073 79.0529 43.502C78.8476 43.2967 78.7449 43.0587 78.7449 42.788C78.7449 42.508 78.8476 42.2653 79.0529 42.06C79.2489 41.8547 79.4869 41.752 79.7669 41.752C80.0563 41.752 80.2989 41.8547 80.4949 42.06C80.6909 42.256 80.7889 42.4987 80.7889 42.788C80.7889 43.068 80.6909 43.306 80.4949 43.502C80.2896 43.7073 80.0469 43.81 79.7669 43.81ZM78.9969 52V45.042H80.5509V52H78.9969ZM89.886 48.5C89.886 49.1347 89.746 49.7227 89.466 50.264C89.1673 50.824 88.7567 51.2673 88.234 51.594C87.674 51.9393 87.072 52.112 86.428 52.112C85.9427 52.112 85.4293 51.958 84.888 51.65C84.58 51.4727 84.342 51.2487 84.174 50.978V55.43H82.62V45.042H84.132V46.12C84.412 45.6627 84.7993 45.3407 85.294 45.154C85.7233 44.986 86.1153 44.902 86.47 44.902C87.506 44.902 88.346 45.2847 88.99 46.05C89.5873 46.778 89.886 47.5947 89.886 48.5ZM84.734 46.946C84.342 47.3847 84.146 47.9073 84.146 48.514C84.146 49.1207 84.342 49.6387 84.734 50.068C85.126 50.488 85.6253 50.698 86.232 50.698C86.848 50.698 87.352 50.488 87.744 50.068C88.1267 49.648 88.318 49.13 88.318 48.514C88.318 47.8887 88.1267 47.366 87.744 46.946C87.352 46.526 86.848 46.316 86.232 46.316C85.6253 46.316 85.126 46.526 84.734 46.946ZM97.905 48.976H92.613C92.6224 49.48 92.837 49.914 93.257 50.278C93.677 50.6327 94.1437 50.8053 94.657 50.796C95.6277 50.796 96.2437 50.404 96.505 49.62L97.807 50.026C97.6857 50.446 97.4617 50.8193 97.135 51.146C96.8177 51.4727 96.4444 51.72 96.015 51.888C95.567 52.0467 95.119 52.126 94.671 52.126C93.663 52.1447 92.7997 51.7993 92.081 51.09C91.3624 50.3807 91.0124 49.522 91.031 48.514C91.031 47.8607 91.1804 47.2587 91.479 46.708C91.787 46.1387 92.207 45.7 92.739 45.392C93.2804 45.0653 93.8777 44.902 94.531 44.902C95.595 44.902 96.4257 45.2333 97.023 45.896C97.6297 46.5587 97.933 47.4267 97.933 48.5C97.933 48.6307 97.9237 48.7893 97.905 48.976ZM94.545 46.232C94.0504 46.232 93.6397 46.3767 93.313 46.666C92.9677 46.946 92.7624 47.324 92.697 47.8H96.351C96.323 47.3333 96.141 46.9507 95.805 46.652C95.4504 46.372 95.0304 46.232 94.545 46.232ZM105.176 46.414V52H103.608V46.414H102.278V45.042H103.608V44.23C103.608 43.2127 103.864 42.4707 104.378 42.004C104.863 41.5747 105.465 41.36 106.184 41.36C106.576 41.36 106.865 41.3973 107.052 41.472V42.788C106.902 42.7507 106.716 42.732 106.492 42.732C106.1 42.732 105.773 42.8627 105.512 43.124C105.288 43.3667 105.176 43.7307 105.176 44.216V45.042H106.996V46.414H105.176ZM107.806 48.514C107.806 47.842 107.974 47.226 108.31 46.666C108.665 46.0873 109.113 45.6533 109.654 45.364C110.214 45.056 110.83 44.902 111.502 44.902C112.155 44.902 112.762 45.056 113.322 45.364C113.882 45.672 114.33 46.1013 114.666 46.652C114.993 47.2213 115.156 47.8327 115.156 48.486C115.175 49.4847 114.815 50.348 114.078 51.076C113.35 51.7947 112.487 52.1447 111.488 52.126C110.844 52.126 110.233 51.9673 109.654 51.65C109.113 51.3607 108.665 50.9267 108.31 50.348C107.974 49.788 107.806 49.1767 107.806 48.514ZM109.402 48.486C109.402 49.0927 109.598 49.6153 109.99 50.054C110.382 50.4927 110.886 50.712 111.502 50.712C112.109 50.712 112.608 50.4973 113 50.068C113.383 49.6387 113.574 49.1207 113.574 48.514C113.574 47.8887 113.378 47.366 112.986 46.946C112.613 46.5167 112.113 46.302 111.488 46.302C110.872 46.302 110.368 46.512 109.976 46.932C109.593 47.3427 109.402 47.8607 109.402 48.486ZM120.567 45.014V46.61C120.445 46.582 120.301 46.568 120.133 46.568C119.545 46.568 119.092 46.7313 118.775 47.058C118.467 47.3847 118.313 47.8513 118.313 48.458V52H116.759V45.042H118.285V46.12C118.481 45.756 118.747 45.476 119.083 45.28C119.428 45.084 119.797 44.986 120.189 44.986C120.291 44.986 120.417 44.9953 120.567 45.014ZM63.614 67V63.094C63.614 62.5527 63.488 62.128 63.236 61.82C62.9933 61.512 62.6247 61.358 62.13 61.358C61.6447 61.358 61.2713 61.5167 61.01 61.834C60.73 62.17 60.59 62.5993 60.59 63.122V67H59.036V60.042H60.548V60.98C60.7627 60.6907 61.0053 60.4667 61.276 60.308C61.5653 60.1213 61.8033 60.0047 61.99 59.958C62.2233 59.9113 62.438 59.888 62.634 59.888C63.6327 59.888 64.3467 60.266 64.776 61.022C65.112 60.6487 65.476 60.3593 65.868 60.154C66.232 59.9767 66.6753 59.888 67.198 59.888C68.0473 59.888 68.6913 60.1587 69.13 60.7C69.5313 61.2133 69.732 61.8807 69.732 62.702V67H68.178V63.08C68.178 62.5387 68.052 62.1187 67.8 61.82C67.5573 61.512 67.1887 61.358 66.694 61.358C66.2087 61.358 65.8353 61.5167 65.574 61.834C65.294 62.1607 65.154 62.5853 65.154 63.108V67H63.614ZM77.2812 67H75.7692C75.7225 66.7853 75.6992 66.468 75.6992 66.048C75.4658 66.4307 75.1672 66.706 74.8032 66.874C74.4298 67.042 74.0472 67.126 73.6552 67.126C72.9738 67.126 72.4138 66.93 71.9752 66.538C71.5365 66.1553 71.3172 65.6653 71.3172 65.068V64.998C71.3265 64.1113 71.7745 63.4953 72.6612 63.15C73.1372 62.9633 73.6505 62.87 74.2012 62.87H75.0692C75.4985 62.87 75.7132 62.674 75.7132 62.282C75.7132 61.9833 75.5965 61.7313 75.3632 61.526C75.1112 61.3207 74.7705 61.218 74.3412 61.218C73.9305 61.218 73.5898 61.3253 73.3192 61.54C73.0485 61.7453 72.8852 62.0253 72.8292 62.38L71.4152 62.058C71.4618 61.7313 71.6205 61.3813 71.8912 61.008C72.1805 60.6347 72.5445 60.3547 72.9832 60.168C73.3658 59.9907 73.8372 59.902 74.3972 59.902C75.7038 59.902 76.5718 60.378 77.0012 61.33C77.1598 61.6753 77.2392 62.086 77.2392 62.562V65.88C77.2392 66.3467 77.2532 66.72 77.2812 67ZM75.6992 64.186V63.962H74.2012C73.8745 63.962 73.5712 64.046 73.2912 64.214C73.0112 64.3913 72.8712 64.6293 72.8712 64.928C72.8712 65.2173 72.9738 65.4507 73.1792 65.628C73.3845 65.796 73.6505 65.88 73.9772 65.88C74.5092 65.88 74.9292 65.726 75.2372 65.418C75.5452 65.11 75.6992 64.6993 75.6992 64.186ZM82.1414 67.056C81.1427 67.056 80.3307 66.6967 79.7054 65.978C79.0707 65.2687 78.7534 64.4427 78.7534 63.5C78.7534 62.6133 79.0567 61.806 79.6634 61.078C79.9527 60.7233 80.3167 60.4433 80.7554 60.238C81.2034 60.0327 81.6794 59.93 82.1834 59.93C82.5754 59.93 82.986 60.0233 83.4154 60.21C83.882 60.4247 84.232 60.7233 84.4654 61.106V60.042H85.9774V66.958C85.9774 67.6767 85.8094 68.3067 85.4734 68.848C85.1187 69.408 84.6707 69.814 84.1294 70.066C83.5694 70.346 82.93 70.486 82.2114 70.486C81.0727 70.486 80.158 70.1407 79.4674 69.45C79.1127 69.0953 78.884 68.6567 78.7814 68.134L80.2374 67.714C80.3214 68.0967 80.5454 68.4187 80.9094 68.68C81.2734 68.96 81.6887 69.1 82.1554 69.1C82.79 69.1 83.3267 68.9227 83.7654 68.568C84.204 68.2227 84.4234 67.7093 84.4234 67.028V65.88C84.2554 66.1507 84.0174 66.384 83.7094 66.58C83.4014 66.7667 83.1167 66.8927 82.8554 66.958C82.566 67.0233 82.328 67.056 82.1414 67.056ZM84.4514 63.472C84.4514 62.856 84.26 62.3427 83.8774 61.932C83.504 61.5213 83.0047 61.316 82.3794 61.316C81.754 61.316 81.25 61.5213 80.8674 61.932C80.4847 62.3427 80.2934 62.856 80.2934 63.472C80.2934 64.088 80.4894 64.606 80.8814 65.026C81.2734 65.4553 81.7727 65.67 82.3794 65.67C82.986 65.67 83.4854 65.4553 83.8774 65.026C84.26 64.5967 84.4514 64.0787 84.4514 63.472ZM88.8177 58.81C88.5471 58.81 88.3091 58.7073 88.1037 58.502C87.8984 58.2967 87.7957 58.0587 87.7957 57.788C87.7957 57.508 87.8984 57.2653 88.1037 57.06C88.2997 56.8547 88.5377 56.752 88.8177 56.752C89.1071 56.752 89.3497 56.8547 89.5457 57.06C89.7417 57.256 89.8397 57.4987 89.8397 57.788C89.8397 58.068 89.7417 58.306 89.5457 58.502C89.3404 58.7073 89.0977 58.81 88.8177 58.81ZM88.0477 67V60.042H89.6017V67H88.0477ZM94.8348 67.126C93.8268 67.1447 92.9634 66.7993 92.2448 66.09C91.5354 65.3713 91.1901 64.508 91.2088 63.5C91.2088 62.8467 91.3674 62.2447 91.6848 61.694C91.9928 61.1433 92.4314 60.7047 93.0008 60.378C93.5514 60.0607 94.1674 59.902 94.8488 59.902C95.6794 59.902 96.3841 60.1213 96.9628 60.56C97.5414 60.9893 97.9101 61.5167 98.0688 62.142L96.6688 62.604C96.5848 62.3053 96.4074 62.0207 96.1368 61.75C95.8194 61.4513 95.3901 61.302 94.8488 61.302C94.2794 61.302 93.7941 61.5027 93.3928 61.904C93.0008 62.3147 92.8048 62.842 92.8048 63.486C92.8048 64.1207 92.9961 64.6527 93.3788 65.082C93.7708 65.502 94.2654 65.712 94.8628 65.712C95.7494 65.712 96.3608 65.2687 96.6968 64.382L98.1108 64.844C97.9521 65.4133 97.6068 65.922 97.0748 66.37C96.4961 66.874 95.7494 67.126 94.8348 67.126ZM99.7681 56.794H101.448V58.348L101.308 63.85H99.9081L99.7681 58.348V56.794ZM99.5861 66.076C99.5861 66.356 99.6841 66.594 99.8801 66.79C100.076 66.986 100.319 67.084 100.608 67.084C100.888 67.084 101.126 66.986 101.322 66.79C101.527 66.5847 101.63 66.3467 101.63 66.076C101.63 65.796 101.527 65.5533 101.322 65.348C101.117 65.1427 100.879 65.04 100.608 65.04C100.328 65.04 100.085 65.1427 99.8801 65.348C99.6841 65.544 99.5861 65.7867 99.5861 66.076Z" fill="black"/>
<path fill-rule="evenodd" clip-rule="evenodd" d="M24.9936 41.1071C24.7184 41.2786 22.073 43.9376 22.028 44.0878C21.9285 44.4201 22.034 44.5627 23.354 45.8807C24.838 47.3625 25.0057 47.4996 25.3334 47.4996C25.7291 47.4996 26.0438 47.0848 25.9446 46.694C25.9201 46.5974 25.5804 46.2106 25.0973 45.7291L24.2908 44.9254L27.5498 44.9088C31.1191 44.8906 30.9696 44.906 31.1706 44.5375C31.3736 44.1652 31.1415 43.7344 30.6809 43.6289C30.5554 43.6001 29.0645 43.576 27.3679 43.5752L24.2832 43.5738L25.0622 42.7975C25.4906 42.3704 25.8708 41.9635 25.9069 41.8931C26.0576 41.5997 25.9037 41.2105 25.5849 41.079C25.318 40.9689 25.2069 40.9741 24.9936 41.1071ZM44.8014 41.11C44.5701 41.2492 44.4861 41.3949 44.4861 41.6569C44.4861 41.9178 44.6711 42.1596 45.46 42.9293L46.0905 43.5445L42.8703 43.5738C39.9209 43.6007 39.6371 43.6118 39.496 43.7065C39.2059 43.9012 39.1169 44.3241 39.3061 44.6093C39.5119 44.9193 39.5374 44.9215 42.9833 44.9215H46.172L45.329 45.761C44.5089 46.5778 44.4861 46.6072 44.4861 46.8508C44.4861 47.0574 44.5214 47.136 44.6879 47.3004C44.8543 47.4647 44.934 47.4996 45.1427 47.4996C45.3937 47.4996 45.4075 47.4881 46.8466 46.0787C47.6445 45.2972 48.3333 44.5757 48.377 44.4753C48.5342 44.115 48.4482 43.9976 46.9348 42.5072C45.3359 40.9326 45.221 40.8574 44.8014 41.11ZM34.5173 45.0154C33.674 45.2382 32.9742 45.9247 32.672 46.8258C32.6098 47.0112 32.5867 48.2619 32.5614 52.8133L32.5295 58.5664L31.4614 57.7734C29.9047 56.6178 29.5964 56.4441 28.8328 56.2925C27.5113 56.0303 25.894 56.737 25.3914 57.7962C25.259 58.0754 25.231 58.2162 25.231 58.6032C25.231 59.4984 24.9175 59.1395 30.5588 64.7033C33.6156 67.7182 35.7077 69.7367 35.9472 69.9023C36.6889 70.4151 37.5191 70.7539 38.4104 70.9074C39.1259 71.0306 42.6554 71.031 43.507 70.9079C44.43 70.7746 45.1171 70.5579 45.8461 70.1701C47.6605 69.2051 48.9797 67.5726 49.5017 65.6464C49.7449 64.7493 49.7783 63.9954 49.755 59.9215C49.7351 56.4193 49.7254 56.1214 49.6239 55.8576C49.4417 55.3843 49.248 55.0891 48.9162 54.7792C48.3402 54.2413 47.7411 54.029 46.9323 54.0763C46.4632 54.1037 46.1037 54.2118 45.6689 54.456C45.6503 54.4664 45.5702 54.3369 45.4908 54.1681C45.4114 53.9994 45.1997 53.7133 45.0202 53.5323C44.2417 52.7476 43.0675 52.5342 42.0372 52.9902C41.8488 53.0735 41.6852 53.1313 41.6736 53.1185C41.662 53.1058 41.5924 52.9779 41.5191 52.8343C41.3152 52.4351 40.7955 51.9334 40.3746 51.7292C39.646 51.3756 38.7555 51.3482 38.1363 51.6601C38.0087 51.7244 37.8899 51.777 37.8723 51.777C37.8547 51.777 37.8403 50.7132 37.8403 49.4131C37.8403 47.2238 37.8317 47.0247 37.7248 46.7179C37.2624 45.3906 35.8782 44.6559 34.5173 45.0154ZM35.7996 46.3452C36.0526 46.4744 36.2988 46.7334 36.4233 47.0016C36.5262 47.2231 36.5323 47.5133 36.5335 52.2916C36.5349 57.7312 36.5288 57.6196 36.8385 57.8338C37.1121 58.023 37.621 57.9095 37.7666 57.6267C37.8154 57.5318 37.8423 56.9151 37.8542 55.6149C37.8732 53.544 37.8795 53.505 38.2602 53.1292C38.5182 52.8744 38.8057 52.7577 39.1754 52.7577C39.7002 52.7577 40.1073 52.9959 40.353 53.4469C40.4746 53.6699 40.4822 53.7766 40.5105 55.6345L40.5401 57.5876L40.7339 57.7585C41.0178 58.0087 41.3426 57.9983 41.6142 57.7301L41.8159 57.5309L41.8163 56.3971C41.8164 55.7723 41.8453 55.1581 41.8805 55.0289C42.0908 54.2579 42.9603 53.8461 43.6884 54.1727C44.0274 54.3247 44.3463 54.713 44.4233 55.0676C44.4578 55.2268 44.4861 55.8461 44.4861 56.4439V57.5309L44.6879 57.7301C44.848 57.8882 44.9372 57.9293 45.1197 57.9293C45.6019 57.9293 45.791 57.6381 45.7929 56.8922C45.7938 56.5185 45.8241 56.3122 45.9031 56.1422C46.2775 55.3362 47.275 55.104 47.9617 55.663C48.4198 56.0358 48.3996 55.8181 48.4011 60.4074C48.4026 64.7854 48.3982 64.861 48.0935 65.7516C47.6204 67.1344 46.4737 68.4074 45.1092 69.0646C43.9872 69.6051 43.3305 69.7056 40.9153 69.7063C39.1277 69.7068 38.579 69.6575 37.8996 69.4353C36.9163 69.1138 37.0412 69.2242 31.6481 63.9132C28.6126 60.924 26.639 58.9371 26.5867 58.8179C26.4731 58.5593 26.5614 58.2899 26.8383 58.0498C27.4787 57.4946 28.4433 57.3851 29.199 57.7819C29.3435 57.8577 30.2493 58.5032 31.2119 59.2163C33.0284 60.5619 33.1972 60.6561 33.5029 60.4949C33.5813 60.4535 33.7015 60.3452 33.7699 60.2542C33.894 60.0891 33.8943 60.0744 33.9239 53.5745L33.9536 47.0602L34.1452 46.7877C34.4175 46.4006 34.8462 46.192 35.2939 46.229C35.4763 46.244 35.7038 46.2963 35.7996 46.3452Z" fill="black"/>
<defs>
<filter id="filter0_d_490_13317" x="0" y="-0.000244141" width="159" height="92.0002" filterUnits="userSpaceOnUse" color-interpolation-filters="sRGB">
<feFlood flood-opacity="0" result="BackgroundImageFix"/>
<feColorMatrix in="SourceAlpha" type="matrix" values="0 0 0 0 0 0 0 0 0 0 0 0 0 0 0 0 0 0 127 0" result="hardAlpha"/>
<feOffset dx="2" dy="5"/>
<feComposite in2="hardAlpha" operator="out"/>
<feColorMatrix type="matrix" values="0 0 0 0 0 0 0 0 0 0 0 0 0 0 0 0 0 0 1 0"/>
<feBlend mode="normal" in2="BackgroundImageFix" result="effect1_dropShadow_490_13317"/>
<feBlend mode="normal" in="SourceGraphic" in2="effect1_dropShadow_490_13317" result="shape"/>
</filter>
</defs>
</svg>
