<svg width="188" height="50" viewBox="0 0 188 50" fill="none" xmlns="http://www.w3.org/2000/svg">
<path d="M73.0977 29.5821C73.6206 28.3468 72.5085 27.1912 71.1671 27.1912H70.7477C69.5814 27.1912 68.6611 28.0928 68.0898 29.1096C68.0465 29.1867 68.0009 29.2629 67.953 29.3383C67.5412 29.9854 67.0118 30.5148 66.3647 30.9559C65.6882 31.3971 64.9235 31.7206 64.0412 31.9559C63.1588 32.1912 62.2177 32.3089 61.1882 32.3089C59.9235 32.3089 58.8059 32.1618 57.8647 31.8089C56.9235 31.4559 56.1294 30.9854 55.4824 30.3677C54.8353 29.7501 54.3353 28.9854 54.0118 28.103C53.6883 27.2206 53.5412 26.2501 53.5412 25.1912C53.5412 24.0736 53.7177 23.0736 54.0706 22.1324C54.4235 21.2206 54.953 20.4265 55.6294 19.7795C56.3059 19.1324 57.1294 18.6618 58.1294 18.3089C59.1 17.9559 60.2177 17.7795 61.453 17.7795C62.3647 17.7795 63.2765 17.8971 64.1588 18.1324C65.0412 18.3677 65.8059 18.6912 66.5118 19.1618C67.2177 19.6324 67.7765 20.2206 68.2177 20.9265C68.287 21.0503 68.3513 21.1782 68.4103 21.3103C68.9361 22.487 69.9015 23.5857 71.1901 23.6008L71.5137 23.6046C72.8238 23.6199 73.936 22.5428 73.596 21.2774C73.4406 20.6988 73.2254 20.1513 72.953 19.6324C72.3059 18.4559 71.453 17.4854 70.3353 16.6912C69.2177 15.8971 67.9235 15.2795 66.453 14.8677C64.9824 14.4559 63.3941 14.2501 61.6883 14.2501C59.7471 14.2501 57.953 14.5148 56.3353 15.0442C54.6882 15.5736 53.3059 16.3089 52.1294 17.2501C50.953 18.2206 50.0118 19.3971 49.3647 20.7501C48.7177 22.1324 48.3941 23.6618 48.3941 25.3677C48.3941 26.9265 48.6588 28.3383 49.2177 29.603C49.7765 30.8971 50.5706 31.9854 51.6294 32.8971C52.6588 33.8089 53.9235 34.5148 55.453 35.0148C56.9824 35.5148 58.6882 35.7501 60.6 35.7501C62.3059 35.7501 63.953 35.5736 65.5118 35.1618C67.0412 34.7501 68.4235 34.1912 69.6294 33.4265C70.8059 32.6912 71.7765 31.7795 72.4824 30.7206C72.726 30.3552 72.9311 29.9756 73.0977 29.5821Z" fill="black"/>
<path d="M90.3172 14.2501C88.523 14.2501 86.8466 14.5442 85.3172 15.103C83.7583 15.6618 82.4054 16.4265 81.2583 17.3971C80.0819 18.3677 79.1701 19.5148 78.523 20.8089C77.8466 22.103 77.523 23.5148 77.523 25.0148C77.523 26.5442 77.8466 27.9854 78.4936 29.2795C79.1407 30.5736 80.0524 31.7206 81.1995 32.6618C82.3466 33.6324 83.6995 34.3971 85.2583 34.9265C86.8171 35.4854 88.4936 35.7501 90.3172 35.7501C92.1113 35.7501 93.7877 35.4854 95.3466 34.9265C96.9054 34.3971 98.2583 33.6324 99.4054 32.6618C100.552 31.7206 101.464 30.5736 102.111 29.2795C102.758 27.9854 103.082 26.5442 103.082 25.0148C103.082 23.4854 102.729 22.0736 102.082 20.7501C101.435 19.4559 100.523 18.3089 99.376 17.3383C98.2289 16.3971 96.876 15.6324 95.3466 15.0736C93.7877 14.5442 92.1113 14.2501 90.3172 14.2501ZM90.3172 32.0148C89.3172 32.0148 88.3466 31.8677 87.4642 31.5736C86.5819 31.2795 85.7878 30.8677 85.1407 30.2795C84.4642 29.6912 83.9348 28.9854 83.5524 28.1324C83.1407 27.2795 82.9642 26.2795 82.9642 25.1324C82.9642 24.0148 83.1407 23.0148 83.5524 22.1324C83.9348 21.2501 84.4642 20.5148 85.1407 19.9265C85.8172 19.3383 86.6113 18.8677 87.523 18.5442C88.4348 18.2501 89.4054 18.103 90.4642 18.103C91.5524 18.1324 92.5525 18.3089 93.4348 18.603C94.3172 18.9265 95.0819 19.3677 95.7289 19.9559C96.3466 20.5442 96.8466 21.2795 97.1995 22.1618C97.5525 23.0442 97.7289 24.0148 97.7289 25.1324C97.7289 26.2501 97.523 27.2501 97.1407 28.103C96.7289 28.9559 96.1995 29.6618 95.523 30.2501C94.8466 30.8383 94.0525 31.2795 93.1701 31.5736C92.2583 31.8677 91.3172 32.0148 90.3172 32.0148Z" fill="black"/>
<path d="M118.481 16.6331C118.306 15.5073 117.332 14.6912 116.192 14.6912H111.645C110.498 14.6912 109.519 15.517 109.325 16.6466L106.603 32.529C106.356 33.9664 107.464 35.2795 108.922 35.2795H109.509C110.638 35.2795 111.608 34.4776 111.82 33.3688L113.236 25.9692C113.264 25.8234 113.279 25.6754 113.292 25.5276C113.306 25.3721 113.331 25.1521 113.367 24.8677C113.396 24.4265 113.425 23.8971 113.484 23.2795C113.543 22.6912 113.602 22.0442 113.661 21.3383C113.72 20.6618 113.749 20.0148 113.808 19.3971C113.867 18.8089 113.896 18.2795 113.955 17.8089C113.966 17.6347 113.978 17.4835 113.988 17.3552C114.006 17.1186 114.206 16.9265 114.443 16.9265C114.666 16.9265 114.852 17.0969 114.871 17.319C114.919 17.8758 114.966 18.4555 115.014 19.0736C115.072 19.8383 115.131 20.603 115.19 21.3677C115.249 22.1324 115.308 22.8971 115.396 23.6618C115.455 24.4265 115.572 25.103 115.72 25.7501L117.554 33.4706C117.806 34.531 118.754 35.2795 119.843 35.2795H121.626C122.715 35.2795 123.662 34.5316 123.915 33.4718L125.72 25.8971C125.867 25.2206 125.984 24.4854 126.072 23.7206C126.131 22.9559 126.22 22.1618 126.278 21.3677C126.337 20.5736 126.367 19.7795 126.425 18.9854C126.473 18.363 126.521 17.7601 126.585 17.1767C126.61 16.9496 126.803 16.7795 127.031 16.7795C127.281 16.7795 127.492 16.9822 127.518 17.231C127.532 17.3602 127.55 17.5131 127.572 17.6912C127.631 18.1618 127.69 18.7206 127.749 19.3383C127.808 19.9854 127.896 20.6618 127.984 21.3677C128.043 22.0736 128.131 22.7501 128.19 23.3971C128.249 24.0442 128.337 24.5736 128.396 25.0442C128.455 25.5148 128.484 25.8089 128.514 25.9265L130.066 33.4047C130.292 34.4966 131.254 35.2795 132.37 35.2795H132.924C134.404 35.2795 135.516 33.9302 135.234 32.4778L132.148 16.5954C131.933 15.4896 130.965 14.6912 129.839 14.6912H125.251C124.123 14.6912 123.153 15.4919 122.976 16.6061C122.939 16.8347 122.903 17.0691 122.867 17.3089C122.719 18.3089 122.572 19.3383 122.455 20.4265C122.308 21.5442 122.161 22.6618 122.043 23.8089C121.925 24.9559 121.808 26.0736 121.72 27.1618C121.602 28.2795 121.514 29.3089 121.455 30.3089C121.41 31.0648 121.366 31.7367 121.334 32.35C121.317 32.6719 121.053 32.9265 120.731 32.9265C120.411 32.9265 120.148 32.6764 120.128 32.3577C120.064 31.3309 119.965 30.1382 119.867 28.7795C119.749 27.1618 119.572 25.4854 119.396 23.7795C119.219 22.0736 119.014 20.4265 118.808 18.8089C118.693 18.0334 118.585 17.307 118.481 16.6331Z" fill="black"/>
<path d="M144.908 23.0845C145.23 23.0833 145.498 23.3355 145.506 23.6569C145.514 23.9821 145.253 24.248 144.928 24.2601C144.528 24.2749 144.174 24.3077 143.874 24.3677C143.433 24.4559 143.08 24.5736 142.815 24.7206C142.55 24.8677 142.344 25.0442 142.227 25.2501C142.109 25.4854 142.021 25.6912 142.021 25.9265V32.9265C142.021 34.226 143.074 35.2795 144.374 35.2795H144.962C146.262 35.2795 147.315 34.226 147.315 32.9265V28.7795C147.315 27.48 148.369 26.4265 149.668 26.4265H154.756C155.633 26.4265 156.344 25.7155 156.344 24.8383C156.344 23.9611 155.633 23.2501 154.756 23.2501H147.58C146.697 23.1912 145.933 22.9265 145.344 22.4265C144.727 21.9559 144.403 21.2501 144.403 20.3677C144.403 19.5736 144.697 19.0442 145.286 18.7501C145.874 18.4559 146.668 18.3089 147.609 18.3089H155.756C156.763 18.3089 157.58 17.4925 157.58 16.4854C157.58 15.4782 156.763 14.6618 155.756 14.6618H142.697C141.462 14.6618 140.433 14.9854 139.668 15.6324C138.903 16.2795 138.492 17.2795 138.492 18.6324C138.492 19.603 138.668 20.3971 139.08 20.9854C139.492 21.5736 140.021 22.0442 140.697 22.3677C141.345 22.6912 142.109 22.8971 142.933 22.9854C143.573 23.054 144.232 23.087 144.908 23.0845Z" fill="black"/>
<path d="M164.861 35.2795C166.161 35.2795 167.214 34.226 167.214 32.9265V17.0442C167.214 15.7447 166.161 14.6912 164.861 14.6912H164.243C162.944 14.6912 161.89 15.7447 161.89 17.0442V32.9265C161.89 34.226 162.944 35.2795 164.243 35.2795H164.861Z" fill="black"/>
<path d="M24.2971 16.9429C24.845 18.0087 26.3687 18.0087 26.9166 16.9429L28.7277 13.4199C29.0996 12.6965 29.9874 12.4115 30.7108 12.7834L31.824 13.3557C32.5474 13.7275 32.8323 14.6154 32.4605 15.3388L30.7113 18.7414C30.1421 19.8486 31.1182 21.1187 32.3346 20.8536L36.341 19.9807C37.1357 19.8075 37.9204 20.3114 38.0935 21.1061L38.36 22.3291C38.5331 23.1238 38.0293 23.9084 37.2346 24.0816L33.3096 24.9367C32.0922 25.202 31.7338 26.7652 32.7141 27.5344L35.7122 29.8865C36.3521 30.3886 36.4639 31.3143 35.9618 31.9543L35.1892 32.939C34.6872 33.5789 33.7614 33.6907 33.1215 33.1886L30.1034 30.8208C29.137 30.0625 27.7217 30.751 27.7217 31.9794V35.9076C27.7217 36.7209 27.0623 37.3803 26.2489 37.3803H24.9973C24.1839 37.3803 23.5246 36.7209 23.5246 35.9076V31.9538C23.5246 30.7254 22.1093 30.0369 21.1428 30.7951L18.0922 33.1885C17.4522 33.6906 16.5265 33.5788 16.0244 32.9389L15.2518 31.9541C14.7498 31.3142 14.8615 30.3885 15.5015 29.8864L18.4995 27.5343C19.4799 26.7651 19.1215 25.2019 17.904 24.9366L13.9791 24.0815C13.1844 23.9083 12.6805 23.1237 12.8537 22.329L13.1201 21.106C13.2933 20.3113 14.0779 19.8074 14.8726 19.9806L18.8791 20.8535C20.0955 21.1186 21.0715 19.8485 20.5024 18.7413L18.7532 15.3386C18.3813 14.6153 18.6663 13.7274 19.3897 13.3556L20.5029 12.7833C21.2262 12.4114 22.1141 12.6964 22.486 13.4198L24.2971 16.9429Z" fill="black"/>
<path fill-rule="evenodd" clip-rule="evenodd" d="M162.059 0.588235H25C11.5178 0.588235 0.588235 11.5178 0.588235 25C0.588235 38.4822 11.5178 49.4118 25 49.4118H162.059C175.541 49.4118 186.471 38.4822 186.471 25C186.471 11.5178 175.541 0.588235 162.059 0.588235ZM25 0C11.1929 0 0 11.1929 0 25C0 38.8071 11.1929 50 25 50H162.059C175.866 50 187.059 38.8071 187.059 25C187.059 11.1929 175.866 0 162.059 0H25Z" fill="black"/>
</svg>
